<?xml version="1.0" standalone="no"?>
<!DOCTYPE svg PUBLIC "-//W3C//DTD SVG 20010904//EN"
 "http://www.w3.org/TR/2001/REC-SVG-20010904/DTD/svg10.dtd">
<svg version="1.0" xmlns="http://www.w3.org/2000/svg"
 width="687.000000pt" height="506.000000pt" viewBox="0 0 687.000000 506.000000"
 preserveAspectRatio="xMidYMid meet">

<g transform="translate(0.000000,506.000000) scale(0.100000,-0.100000)"
fill="#000000" stroke="none">
<path d="M4972 4998 c-8 -8 -12 -52 -12 -131 l0 -120 -80 -125 -80 -125 0 -72
c0 -40 -3 -152 -6 -251 l-7 -179 -70 -34 c-252 -124 -542 -365 -669 -556 -114
-173 -239 -448 -291 -645 l-31 -115 -4 -407 -4 -408 -1414 0 -1414 0 0 919 c0
723 -3 921 -12 928 -7 6 -91 21 -185 34 l-173 23 0 246 c0 178 -3 249 -12 258
-16 16 -80 16 -96 0 -9 -9 -12 -80 -12 -258 l0 -246 -172 -23 c-112 -15 -179
-29 -190 -39 -17 -14 -18 -112 -18 -1792 0 -1368 3 -1779 12 -1788 9 -9 784
-12 3425 -12 l3413 0 0 469 c0 404 -2 470 -15 481 -12 10 -15 38 -15 129 0 78
-4 121 -12 129 -7 7 -33 12 -58 12 l-45 0 -198 198 -198 198 -8 479 -8 480
-31 115 c-37 140 -83 254 -169 425 -91 181 -141 253 -268 384 -152 156 -352
303 -536 391 l-46 22 -6 187 c-4 102 -7 219 -7 259 l0 73 -75 115 -75 115 0
123 c0 81 -4 126 -12 134 -16 16 -100 16 -116 0z"/>
</g>
</svg>
