<?xml version="1.0" standalone="no"?>
<!DOCTYPE svg PUBLIC "-//W3C//DTD SVG 20010904//EN"
 "http://www.w3.org/TR/2001/REC-SVG-20010904/DTD/svg10.dtd">
<svg version="1.0" xmlns="http://www.w3.org/2000/svg"
 width="1013.000000pt" height="135.000000pt" viewBox="0 0 1013.000000 135.000000"
 preserveAspectRatio="xMidYMid meet">

<g transform="translate(0.000000,135.000000) scale(0.100000,-0.100000)"
fill="#000000" stroke="none">
<path d="M1725 1217 c-255 -145 -302 -197 -323 -361 -7 -58 -7 -58 -51 -73
-64 -21 -92 -42 -108 -80 -18 -44 -11 -54 33 -42 105 29 205 -64 206 -192 0
-81 -31 -110 -132 -124 -93 -12 -170 -82 -170 -153 l0 -36 28 27 c37 35 76 42
171 28 134 -20 201 12 242 117 19 49 23 81 27 225 l4 167 79 0 79 0 0 -129 c0
-111 -3 -132 -19 -152 l-19 -23 71 -66 c38 -36 73 -66 77 -68 13 -5 231 189
224 199 -3 5 -14 7 -25 4 -18 -6 -19 0 -19 117 l1 123 39 55 40 55 -40 3 -40
3 0 160 c0 128 3 161 14 165 8 3 37 -11 65 -31 l51 -37 0 -336 c0 -215 4 -351
11 -377 11 -38 76 -115 97 -115 15 0 142 119 142 132 0 6 -12 8 -30 5 -56 -12
-60 10 -60 369 l0 317 30 54 c17 29 30 57 30 63 0 16 -25 11 -54 -11 -29 -23
-26 -23 -110 38 -32 24 -62 43 -67 43 -5 0 -58 -36 -118 -80 -60 -44 -111 -80
-115 -80 -3 0 -15 23 -27 50 -23 53 -78 110 -107 110 -9 0 -66 -28 -127 -63z
m75 -96 c5 -11 10 -76 10 -145 l0 -126 -49 0 c-46 0 -50 -2 -77 -42 l-29 -43
-3 147 c-3 159 1 176 52 231 25 27 27 27 56 12 16 -8 34 -24 40 -34z m-175
-52 c-12 -33 -15 -105 -15 -349 0 -189 -4 -319 -10 -337 -12 -33 -45 -53 -90
-53 -38 0 -38 10 1 39 56 41 59 62 59 371 0 189 4 289 11 303 11 21 49 67 55
67 2 0 -3 -19 -11 -41z m435 -94 l0 -135 -45 0 -45 0 0 108 0 107 43 27 c23
15 43 28 45 28 1 0 2 -61 2 -135z m-2 -411 c-3 -148 -4 -157 -25 -171 -20 -14
-23 -13 -37 16 -12 23 -16 63 -16 171 l0 140 40 0 41 0 -3 -156z"/>
<path d="M4074 1244 c-114 -61 -226 -135 -277 -183 -53 -51 -80 -112 -92 -204
-5 -41 -11 -60 -23 -63 -85 -27 -142 -74 -142 -119 0 -22 2 -22 41 -14 90 21
175 -40 199 -142 25 -103 -8 -153 -111 -170 -71 -11 -141 -47 -165 -84 -9 -13
-18 -43 -22 -67 l-5 -43 32 28 c45 37 69 41 169 28 138 -17 198 10 243 111 21
47 24 71 27 226 l4 172 79 0 79 0 0 -126 c0 -102 -3 -132 -17 -155 l-18 -30
33 -25 c18 -15 51 -46 73 -69 l41 -44 113 97 c111 95 129 119 86 115 -20 -3
-21 1 -21 118 l0 120 40 54 c22 30 40 57 40 60 0 3 -18 5 -40 5 l-40 0 0 159
c0 185 2 189 80 138 l50 -32 0 -327 c0 -382 5 -416 62 -470 21 -21 44 -38 51
-38 7 0 42 29 77 65 47 47 61 68 53 76 -8 8 -13 8 -17 0 -4 -6 -13 -11 -20
-11 -31 0 -36 50 -36 381 l0 331 27 48 c15 27 24 52 21 56 -4 3 -24 -3 -44
-15 l-36 -22 -71 52 c-82 60 -70 62 -207 -40 -52 -39 -98 -71 -102 -71 -4 0
-17 21 -28 48 -24 54 -76 112 -100 112 -10 0 -48 -16 -86 -36z m7 -103 l29
-29 0 -131 0 -131 -48 0 c-44 0 -49 -2 -72 -40 -14 -22 -28 -40 -32 -40 -5 0
-8 63 -8 140 0 149 10 190 60 240 27 27 36 25 71 -9z m-156 -78 c-12 -37 -15
-117 -15 -353 0 -168 -3 -315 -6 -328 -8 -27 -52 -52 -94 -52 -38 0 -38 5 0
37 59 49 60 55 60 371 l0 289 30 41 c17 23 32 42 35 42 2 0 -2 -21 -10 -47z
m435 -89 l0 -135 -42 3 -43 3 -3 102 -3 102 42 31 c23 16 44 30 46 30 1 0 3
-61 3 -136z m-2 -410 c-3 -148 -4 -157 -25 -171 -20 -14 -23 -13 -37 16 -12
23 -16 63 -16 171 l0 140 40 0 41 0 -3 -156z"/>
<path d="M158 1235 c-20 -13 -45 -44 -57 -68 -28 -58 -27 -79 2 -45 37 44 57
49 140 37 61 -9 84 -8 126 4 28 8 51 13 51 11 0 -2 -15 -24 -34 -49 -39 -50
-70 -127 -80 -197 -7 -44 -9 -47 -44 -53 -54 -9 -113 -45 -135 -83 -24 -40
-18 -48 24 -33 121 42 188 -24 189 -185 0 -100 -11 -114 -91 -114 -60 0 -117
-22 -168 -65 -37 -32 -64 -85 -55 -109 5 -12 13 -9 46 15 52 37 86 37 208 -1
149 -47 264 -39 330 24 40 37 57 71 75 148 21 88 19 151 -12 381 -41 307 -38
340 30 382 l42 27 -48 -5 c-61 -6 -110 -43 -154 -117 -30 -50 -33 -61 -33
-140 0 -47 11 -182 25 -300 31 -271 32 -319 4 -354 -16 -20 -29 -26 -58 -26
-39 0 -109 38 -145 78 -18 21 -18 22 0 27 81 25 108 42 126 77 25 48 25 85 -2
243 -30 183 -23 314 21 402 18 34 40 70 50 79 11 9 19 20 19 23 0 3 -80 7
-178 8 -174 3 -178 2 -214 -22z"/>
<path d="M1030 1233 c-14 -9 -37 -27 -51 -40 -17 -16 -29 -21 -34 -14 -7 13
-49 35 -85 46 l-25 7 21 -23 c43 -48 44 -55 44 -407 l0 -339 -24 -35 -24 -35
42 -20 c22 -11 61 -37 84 -57 24 -20 47 -36 51 -36 12 0 131 111 131 122 0 6
-11 8 -25 6 -17 -4 -35 4 -60 24 l-35 29 0 328 c0 352 4 387 52 438 l21 23
-29 0 c-16 0 -41 -7 -54 -17z"/>
<path d="M2775 1218 c-9 -30 -25 -121 -21 -125 4 -4 44 45 85 105 l22 32 -41
0 c-24 0 -42 -5 -45 -12z"/>
<path d="M5854 1079 c-17 -18 -16 -20 4 -42 12 -13 22 -36 22 -51 0 -22 -7
-30 -37 -42 -35 -15 -40 -14 -136 20 l-100 36 -48 -45 c-26 -25 -64 -52 -83
-62 l-36 -17 0 -122 0 -122 65 -42 c39 -25 62 -47 58 -54 -4 -6 -40 -59 -80
-118 -69 -102 -83 -128 -65 -128 4 0 29 7 56 15 66 20 105 19 171 -6 l55 -21
73 47 c39 25 82 48 94 52 23 5 23 8 23 147 l0 142 -52 32 c-29 18 -59 36 -67
41 -15 10 -16 8 97 171 37 53 52 84 52 108 0 63 -35 96 -66 61z m-162 -241
l77 -11 -57 -83 c-31 -46 -61 -83 -66 -84 -5 0 -24 9 -42 21 l-34 21 0 80 c0
79 0 80 23 74 12 -4 57 -12 99 -18z m33 -240 l45 -32 0 -89 c0 -99 6 -94 -75
-63 -22 8 -66 15 -98 16 -32 0 -57 4 -55 8 6 14 130 192 134 192 2 0 24 -14
49 -32z"/>
<path d="M6475 1078 c-13 -20 -13 -24 5 -43 11 -12 20 -34 20 -49 0 -22 -7
-30 -37 -42 -35 -15 -40 -14 -136 20 l-100 36 -48 -45 c-26 -25 -64 -52 -83
-62 l-36 -17 0 -122 0 -122 65 -42 c39 -25 62 -47 58 -54 -3 -6 -39 -60 -80
-119 -40 -60 -73 -113 -73 -118 0 -13 18 -11 65 6 56 20 105 18 170 -6 l56
-21 62 41 c35 22 77 46 95 52 l32 11 0 142 0 142 -52 32 c-29 18 -59 36 -67
41 -10 7 4 35 68 127 62 90 81 125 81 151 0 65 -37 99 -65 61z m-153 -243 l67
-7 -57 -84 c-31 -46 -60 -83 -64 -84 -4 0 -23 9 -42 21 l-36 21 0 83 0 84 33
-14 c17 -7 62 -16 99 -20z m23 -237 l45 -32 0 -89 c0 -99 6 -94 -75 -63 -22 8
-66 15 -98 16 -32 0 -57 4 -55 8 6 14 130 192 134 192 2 0 24 -14 49 -32z"/>
<path d="M7438 976 c-25 -18 -74 -42 -107 -52 l-61 -18 0 -255 1 -256 70 -48
c64 -44 69 -50 57 -65 -88 -104 -138 -172 -138 -185 0 -20 -1 -20 75 -2 73 18
169 19 247 3 56 -12 60 -11 114 17 76 41 114 77 114 110 0 14 -18 52 -40 85
-68 100 -71 113 -68 325 l3 190 58 3 57 3 0 69 c0 39 -2 70 -5 70 -3 0 -24
-13 -47 -30 -22 -16 -49 -30 -60 -30 -10 0 -63 23 -118 50 -55 28 -101 50
-102 49 -2 0 -24 -15 -50 -33z m65 -119 l57 -22 0 -181 0 -181 -34 -39 -33
-39 -42 29 -41 29 0 219 c0 205 1 220 18 214 9 -4 43 -17 75 -29z m170 -625
c27 -34 46 -62 42 -62 -3 0 -34 10 -68 21 -42 15 -89 22 -149 23 -49 0 -88 2
-88 4 0 2 34 46 76 99 l76 96 32 -60 c17 -32 53 -87 79 -121z"/>
<path d="M8119 973 c-30 -19 -80 -41 -111 -50 l-58 -16 0 -253 0 -252 70 -51
c39 -28 70 -54 70 -57 0 -3 -34 -45 -75 -94 -99 -116 -99 -129 1 -105 76 18
198 19 257 1 45 -13 47 -13 109 21 75 42 97 60 109 92 9 23 8 27 -78 169 -22
35 -23 48 -23 245 l0 207 55 0 55 0 0 71 c0 53 -3 68 -12 63 -7 -4 -32 -20
-54 -35 l-42 -29 -109 54 -110 54 -54 -35z m66 -116 l60 -23 3 -164 c3 -178
-2 -201 -48 -245 l-28 -27 -41 27 -41 28 0 219 c0 206 1 219 18 214 10 -3 44
-16 77 -29z m95 -506 c16 -33 50 -85 76 -116 25 -31 44 -58 42 -60 -2 -3 -33
5 -68 17 -44 14 -94 21 -152 22 -54 1 -84 5 -80 11 12 20 144 185 148 185 2 0
17 -27 34 -59z"/>
<path d="M9142 952 c-63 -57 -70 -77 -25 -66 20 5 25 1 39 -32 13 -30 15 -70
12 -208 -3 -155 -5 -174 -25 -208 l-22 -38 40 -20 c22 -12 58 -37 79 -57 46
-41 43 -42 145 51 48 43 58 57 48 67 -10 10 -18 8 -37 -10 -26 -24 -35 -23
-73 12 -22 20 -23 26 -22 211 l0 191 28 22 28 22 38 -40 c22 -21 43 -39 47
-39 12 0 88 71 88 82 0 11 -82 108 -91 108 -4 0 -35 -25 -69 -56 -59 -52 -64
-55 -77 -38 -7 10 -13 23 -13 30 0 13 -57 74 -68 74 -4 -1 -35 -27 -70 -58z"/>
<path d="M3127 960 c-27 -22 -70 -47 -97 -57 l-49 -17 -3 -221 c-3 -192 -5
-223 -21 -247 l-18 -26 33 -7 c18 -4 77 -30 131 -56 l97 -49 105 56 105 56 0
252 0 252 -59 18 c-33 10 -84 33 -113 52 -29 18 -55 33 -58 33 -3 0 -27 -18
-53 -39z m89 -126 l54 -24 0 -205 c0 -113 -4 -205 -9 -205 -5 0 -39 14 -75 31
l-66 31 0 205 c0 233 -11 214 96 167z"/>
<path d="M5093 966 c-23 -18 -67 -46 -98 -62 l-55 -29 0 -215 c0 -190 -3 -220
-20 -257 l-19 -43 47 -14 c26 -7 65 -25 86 -40 21 -14 48 -26 60 -26 29 1 206
139 199 157 -7 19 -16 17 -58 -17 -21 -16 -43 -30 -49 -30 -6 0 -33 13 -61 28
l-50 27 -3 71 -3 70 125 109 125 110 -57 60 c-32 33 -73 77 -92 97 l-35 38
-42 -34z m46 -163 c28 -32 51 -61 51 -65 0 -8 -100 -88 -111 -88 -5 0 -9 47
-9 105 0 58 4 105 9 105 5 0 32 -26 60 -57z"/>
<path d="M6865 990 c-11 -18 -107 -60 -137 -60 -16 0 -28 -2 -28 -4 0 -3 14
-43 30 -89 17 -47 30 -91 30 -97 0 -7 -18 -32 -40 -57 -51 -59 -83 -141 -84
-219 -1 -51 4 -68 29 -108 17 -26 42 -55 56 -64 26 -15 28 -14 115 61 49 43
92 77 95 77 4 0 9 -21 12 -46 6 -53 34 -98 66 -102 15 -2 41 13 81 48 60 52
69 75 25 64 -40 -10 -45 18 -45 236 0 189 1 204 24 260 25 60 22 70 -13 48
-15 -9 -33 -6 -97 20 -44 17 -86 34 -95 37 -10 4 -20 1 -24 -5z m-25 -121 c41
-17 81 -36 88 -41 7 -7 12 -37 12 -84 0 -53 -4 -74 -12 -73 -7 0 -40 17 -73
38 -58 36 -61 40 -87 114 -19 53 -23 77 -15 77 7 0 46 -14 87 -31z m23 -205
c34 -20 65 -41 69 -48 4 -6 8 -38 8 -70 0 -59 0 -60 -52 -107 -29 -27 -56 -49
-60 -49 -13 0 -46 56 -63 108 -12 36 -16 68 -11 98 5 43 30 104 42 104 3 0 33
-16 67 -36z"/>
<path d="M9775 959 c-27 -21 -72 -48 -100 -58 l-50 -19 -5 -225 c-4 -162 -9
-230 -17 -239 -20 -19 -16 -26 20 -33 17 -4 75 -29 127 -57 l95 -50 107 59
108 58 0 251 0 251 -57 16 c-32 9 -84 32 -117 51 -32 20 -59 36 -60 35 0 0
-23 -18 -51 -40z m72 -118 l68 -29 3 -211 2 -210 -67 31 c-38 17 -74 36 -80
41 -15 11 -19 407 -4 407 5 0 40 -13 78 -29z"/>
<path d="M2670 950 c-43 -38 -44 -40 -32 -73 8 -23 12 -108 12 -265 0 -139 4
-242 11 -259 15 -39 49 -73 74 -73 28 0 147 102 134 115 -6 6 -16 5 -28 -2
-40 -25 -46 5 -49 229 -3 202 -2 210 19 245 l23 37 -49 43 c-27 24 -54 43 -60
43 -5 -1 -30 -18 -55 -40z"/>
<path d="M8771 960 c-19 -16 -58 -42 -87 -57 l-53 -27 -3 -227 c-3 -217 -4
-229 -25 -258 l-23 -30 38 -10 c20 -6 42 -11 47 -11 6 0 28 -14 49 -30 22 -17
50 -30 64 -30 14 0 60 29 117 74 77 61 92 76 80 86 -11 9 -22 5 -55 -21 l-40
-33 -60 29 -60 29 0 72 0 72 120 107 c66 58 120 110 120 113 0 12 -174 182
-185 182 -6 -1 -25 -14 -44 -30z m109 -221 c0 -8 -104 -89 -113 -89 -4 0 -7
51 -7 112 l0 113 60 -65 c32 -36 59 -68 60 -71z"/>
</g>
</svg>
