<?xml version="1.0" encoding="UTF-8"?>
<svg width="49px" height="49px" viewBox="0 0 49 49" version="1.1" xmlns="http://www.w3.org/2000/svg" xmlns:xlink="http://www.w3.org/1999/xlink">
    <title>Msg/Atom/Oroscopo/Toro</title>
    <defs>
        <polygon id="path-1" points="0 0 6 0 6 3 0 3"></polygon>
        <polygon id="path-3" points="0 0 13 0 13 9 0 9"></polygon>
    </defs>
    <g id="Msg/Atom/Oroscopo/Toro" stroke="none" stroke-width="1" fill="none" fill-rule="evenodd">
        <g id="Group-15" transform="translate(0.000000, 13.000000)">
            <path d="M0.100293144,7.12714274 C0.154615881,7.06945263 0.246618203,7.02453995 0.379474815,7.00291414 C0.6159102,6.96445407 2.53125167,7.04527134 2.14826675,6.65268469 C2.08105279,6.58378238 1.97365795,6.54925137 1.86905301,6.52481453 C1.47256758,6.43211425 0.957527744,6.45374006 0.618924566,6.23936667 C0.339293947,6.06236727 1.0495942,6.01368525 1.13271376,6.01326998 C1.734112,6.01033117 2.33737017,6.02956121 2.94117348,6.01275888 C3.57515254,5.99512603 4.21288351,5.9822847 4.84272583,6.07022539 C5.91481423,6.21991302 6.95246189,6.63700039 7.82371009,7.28104693 C8.20066627,7.55969081 7.89512493,7.95566347 7.6313037,8.19377094 C7.40108946,8.40153201 7.12453734,8.55926943 6.84186028,8.68372163 C6.35895232,8.89640201 5.84317492,8.93722591 5.32342113,8.96348353 C4.560626,9.00203944 3.78012948,9.03615519 3.02220864,8.92163744 C2.28397739,8.81012239 1.56517919,8.56776642 0.911831227,8.20581367 C0.621393782,8.0448819 -0.303086852,7.5557298 0.100293144,7.12714274" id="Fill-1" fill="#FCCA73"></path>
            <path d="M43.0284284,9.10313277 C43.5833333,9.13564593 44.112339,9.0913098 44.6718468,8.91707827 C45.6904745,8.5998706 46.6299458,8.02189735 47.3574259,7.31780197 C47.4544427,7.22387857 47.5818967,7.01317192 47.7395612,7.00072008 C47.9030278,6.98779657 48.0209844,7.15143145 47.996868,7.28236452 C47.980369,7.37185431 47.9222821,7.45040157 47.8645841,7.52526987 C46.9958414,8.6533255 45.7914134,9.6936522 44.2201823,9.95438634 C43.6721492,10.0452911 43.0800324,10.0049798 42.5725824,9.79131745 C42.3780302,9.70940568 42.0450354,9.57130337 42.0048737,9.36427568 C41.9565112,9.11495574 42.2785823,9.02313908 42.5055815,9.05263361 C42.6834078,9.07574499 42.8571498,9.09310211 43.0284284,9.10313277" id="Fill-3" fill="#FCCA73"></path>
            <g id="Group-7" transform="translate(43.000000, 10.000000)">
                <mask id="mask-2" fill="white">
                    <use xlink:href="#path-1"></use>
                </mask>
                <g id="Clip-6"></g>
                <path d="M1.00557617,1.78500843 C1.51913851,1.9118565 2.0224603,1.94215596 2.5778188,1.82099345 C3.58896555,1.60038657 4.57326002,1.05354847 5.38193059,0.321417543 C5.48984005,0.223738876 5.64731783,-0.00961638025 5.79719024,0.00030686837 C5.95256653,0.0105832575 6.03335687,0.226175545 5.98699082,0.3798623 C5.95533515,0.484956918 5.88668672,0.570275668 5.81917242,0.651215475 C4.80128758,1.87110409 3.48512562,2.93239729 1.96692111,2.99765766 C1.43738083,3.02039991 0.890361542,2.87822554 0.454020346,2.54094103 C0.286769008,2.41162097 0,2.1928151 0,1.93738856 C-6.67032467e-05,1.62976786 0.318091108,1.57019305 0.52523726,1.64159806 C0.687551782,1.69750021 0.847064327,1.74588046 1.00557617,1.78500843" id="Fill-5" fill="#FCCA73" mask="url(#mask-2)"></path>
            </g>
            <g id="Group-10" transform="translate(24.000000, 0.000000)">
                <mask id="mask-4" fill="white">
                    <use xlink:href="#path-3"></use>
                </mask>
                <g id="Clip-9"></g>
                <path d="M0.0013016899,3.09647561 C0.0462308817,1.72961549 1.22928487,0.810887627 2.53826618,0.39967563 C4.57263766,-0.239411216 6.97948888,-0.00356236784 9.04965022,0.356337269 C9.94942008,0.512770274 11.021058,0.654487037 11.7800405,1.14657354 C13.1534854,2.03706825 13.2852033,3.66664895 12.5832195,4.98511402 C12.3625502,5.39950265 12.0895914,5.79894814 11.7106583,6.09858898 C11.3317602,6.39819741 10.8347135,6.5900596 10.3395506,6.54451705 C9.86671269,6.5009842 9.44780379,6.25301228 8.99666308,6.11437491 C7.37450298,5.61587031 7.48218653,7.2354673 7.01845309,8.14722601 C6.52102275,9.12524023 4.83865475,9.30608145 4.114032,8.45944373 C3.66917021,7.93961031 3.60495077,7.2082066 3.17620489,6.67680115 C2.68107682,6.06312738 1.81081791,5.83865606 1.15746095,5.37000534 C0.416199056,4.83827575 -0.0272674157,3.96622496 0.0013016899,3.09647561" id="Fill-8" fill="#FAC8AB" mask="url(#mask-4)"></path>
            </g>
            <path d="M13.870125,6.09073878 C15.5804737,4.48562786 18.3839827,4.83554555 20.2483378,5.95871869 C20.4415946,6.07509541 20.631786,6.20403694 20.7768079,6.37833354 C21.2002815,6.88719082 20.995151,7.6332404 20.3809222,7.85579163 C20.1147669,7.95219351 19.8275067,7.96747891 19.5522612,8.03241504 C19.2770509,8.09735118 18.9951109,8.22869113 18.8560084,8.47859142 C18.621493,8.89981715 18.860624,9.41483155 18.7109513,9.85986242 C18.3776406,10.8508007 17.3853544,11.0936847 16.4530359,10.9705423 C14.4955933,10.7120507 12.0552731,8.8978483 13.3742813,6.7016897 C13.5100367,6.47559455 13.6787356,6.27036917 13.870125,6.09073878" id="Fill-11" fill="#FCCA73"></path>
            <path d="M47.9792152,10.079945 C47.0131695,11.0328015 45.3664861,11.4282565 44.0507169,11.120968 C43.7784888,11.0573725 43.1905826,10.8656449 43.2435383,10.482862 C43.2683813,10.3033359 43.4839121,10.1843464 43.6246105,10.1050874 C43.907187,9.94582979 44.215247,9.82889075 44.5169362,9.71151474 C44.9373459,9.54792109 47.129463,8.91526038 46.6679629,8.18845012 C46.6943228,8.199139 46.7206827,8.2098615 46.7470426,8.22055038 C46.1731253,8.36397633 45.5992418,8.50740228 45.0253245,8.65079462 C44.4828234,8.78638878 43.9132208,8.8867567 43.3866974,9.07646752 C43.1220874,9.17175989 42.8636459,9.31582449 42.7206554,9.56798795 C42.5482712,9.87194879 42.626407,10.1308012 42.8320613,10.3860234 C43.0396706,10.6436658 43.1654699,10.897678 42.9469728,11.1969666 C42.8147015,11.3781734 42.631261,11.514339 42.4979785,11.6958819 C42.3481451,11.8999454 42.2377842,12.1301933 42.1523,12.3675671 C41.994916,12.8043658 41.9139487,13.2634499 41.8010934,13.7125509 C41.586911,14.564737 41.1698721,15.4858967 40.4032108,15.9805431 C40.0774877,16.1906905 39.6739658,16.2938483 39.3060736,16.1295488 C38.9901258,15.9884085 38.7933706,15.6949013 38.6354136,15.400352 C38.4287481,15.0148465 38.2673865,14.6159294 37.9474275,14.3052124 C37.6270977,13.9941928 37.2401266,13.7607853 36.9658085,13.4027751 C36.5246682,12.82692 36.3688685,12.0684465 36.4693192,11.357804 C36.5748936,10.6109605 36.9566062,9.99550955 37.5562428,9.54566903 C37.670042,9.46029244 37.8026504,9.36674793 37.8674714,9.23512008 C37.9734166,9.0200988 37.8136393,8.70494489 37.5653441,8.87640394 C37.3415548,9.03092213 37.149485,9.28688384 36.9751794,9.4931994 C36.6066468,9.92942673 36.2883057,10.4080062 36.0261227,10.9148877 C35.7853107,11.3803582 35.6357133,11.873761 35.4341715,12.3544581 C35.2742931,12.7357956 35.0448071,13.1052679 34.617858,13.2091988 C34.5823969,13.2178373 34.5402278,13.1981401 34.5316996,13.1603929 C34.1631669,11.5341705 34.6477572,9.90414988 35.7241976,8.65197107 C36.6913894,7.52688237 38.0949349,6.85667613 39.5916165,7.22406437 C40.0423299,7.33471782 40.3423337,7.55599109 40.6794502,7.86334682 C41.1236917,8.26831421 41.5563713,8.68568474 42.0078263,9.08278673 C42.0337817,9.10560984 42.0364446,9.15928953 42.0078263,9.18154123 C41.8745775,9.28513597 41.5400902,9.11145847 41.4169201,9.06006445 C40.9903754,8.88215174 40.5973369,8.62027417 40.2666586,8.29819602 C39.7976752,7.84146486 39.5027951,7.28365992 39.3075231,6.66518383 C39.022115,5.76113311 38.5813118,4.91936697 38.1116205,4.09884414 C37.2811832,2.64811434 36.1373937,1.42783411 34.5945318,0.725023412 C33.7370268,0.334375085 32.7930263,0.132866161 31.8504752,0.137101377 C30.9016545,0.141370207 30.0040365,0.404155323 29.1080703,0.689864391 C28.2281156,0.970430695 27.3489698,1.26884541 26.4322056,1.4060866 C25.6304541,1.52611802 24.7887582,1.52198365 24.0296813,1.83754091 C23.2296152,2.17010626 22.7551711,2.87886643 22.6117423,3.71579232 C22.4577292,4.61436414 22.6952378,5.50896965 22.9950392,6.35204669 C23.3023914,7.21629981 23.7373968,8.08707382 23.7796333,9.01764506 C23.8197461,9.9023684 23.521293,10.7880665 23.1588278,11.5837495 C22.8069807,12.3561723 22.3415704,13.1083603 21.7616868,13.7324833 C21.2060732,14.330422 20.5163343,14.7890354 19.9780804,15.4041839 C19.6777058,15.7474717 19.4182532,16.1515652 19.4199049,16.6233549 C19.4213543,17.0475824 19.6636158,17.3888199 20.0092605,17.6148998 C20.6049196,18.004607 21.3426254,18.0598665 21.9740153,18.3718944 C22.2468165,18.5067154 22.5084939,18.6888634 22.6817545,18.9431108 C22.898465,19.2611554 22.8298012,19.7264915 23.2016373,19.9180846 C23.4550899,20.0487377 23.7173404,20.124938 23.7952739,20.4311173 C23.8327238,20.578207 23.8183978,20.7326916 23.8316789,20.8823695 C23.863904,21.2450184 24.153357,21.269623 24.455754,21.2994712 L25.9755932,21.4494516 C25.9522333,21.4727117 25.9288735,21.4960054 25.9055474,21.5192991 C25.9708066,20.6431806 24.9726032,20.0444016 24.4026635,19.5312345 C23.773768,18.9649592 23.1728842,18.3609366 22.6757207,17.6743273 C22.4198748,17.3209556 22.1926472,16.9457692 22.0105551,16.5492386 C21.8593734,16.2200009 21.7074502,15.8335542 21.8275528,15.4706028 C21.9107449,15.2191789 22.1376016,14.9840571 22.4167736,14.975822 C22.769396,14.965402 22.9677355,15.3070428 23.287762,15.3831086 C23.7009244,15.4813253 24.0948057,15.1046599 24.5112716,15.1036516 C24.9120294,15.102744 25.2808654,15.3093285 25.5926334,15.5423326 C25.9429636,15.8041766 26.2631586,16.1175154 26.67713,16.2794284 C27.0576628,16.428266 27.4692747,16.4674922 27.8627515,16.5693055 C28.2095086,16.6590517 28.5387711,16.8049314 28.7891563,17.0673468 C29.0367773,17.3269051 29.1932849,17.6545293 29.3350282,17.9795318 C29.487929,18.3301472 29.6292004,18.6867794 29.8502931,19.0018661 C30.0672059,19.3110369 30.3366699,19.5795362 30.5552007,19.8875978 C30.7971251,20.2287008 30.8974746,20.5587788 30.9176996,20.9723847 C30.9328683,21.2826311 31.047881,21.4597708 31.3387161,21.5638025 C31.5056058,21.6234989 31.6861811,21.6609772 31.8339582,21.7639333 C31.9783308,21.8645365 32.055725,22.0143489 32.1562768,22.1534724 C32.3314588,22.3957873 32.6116757,22.4660381 32.8825892,22.5583725 C33.4378321,22.7476464 34.0035245,22.9025343 34.5956779,22.849258 C34.5755541,22.8842826 34.5553965,22.9193407 34.535239,22.9543653 C34.356821,22.5639187 34.1038066,22.2166645 33.7739037,21.9393922 C33.4979002,21.7073965 33.1779412,21.5338198 32.9025445,21.3008829 C32.6726203,21.1063654 32.4860787,20.8705378 32.4126283,20.574476 C32.3574478,20.3520263 32.3641221,20.119123 32.3162563,19.8951607 C32.2683906,19.6714337 32.1850974,19.4560426 32.0702195,19.2580631 C31.8598461,18.8956495 31.5191565,18.6783762 31.2687714,18.3539787 C31.0727914,18.100101 31.0128244,17.7968797 31.0730274,17.4832047 C31.2343889,16.642447 32.0564666,16.1773126 32.3468634,15.4014276 C32.3610209,15.3636132 32.4101339,15.330639 32.4497411,15.3597141 C32.7315087,15.5662986 33.0133099,15.7729503 33.2950438,15.9795683 C33.5267208,16.1494476 33.7804768,16.313579 33.9573104,16.5437597 C34.205909,16.867384 34.2533029,17.3387368 33.9028716,17.6080428 C33.5275298,17.8965081 32.9851635,17.8265598 32.6248557,18.1459153 C32.2454689,18.4821781 32.0242414,19.2859953 32.4341005,19.6860553 C32.9677026,20.2068188 33.6116657,18.8717844 33.8483653,18.5379754 C34.1653243,18.0910256 34.5728574,17.7619559 35.0405599,17.4816922 C35.2762482,17.3403838 35.5193186,17.2119492 35.7582767,17.0762878 C35.9320092,16.9776341 36.1360117,16.8663757 36.1513153,16.640363 C36.1641918,16.4504505 36.0309093,16.2691093 35.9130988,16.1355319 C35.718602,15.9148636 35.470745,15.7405139 35.2518097,15.545425 C35.0179416,15.3370591 34.7914556,15.1204916 34.573026,14.8960923 C34.2011562,14.5139816 33.6647562,14.034898 33.596025,13.4723872 C33.5798451,13.3400535 33.679116,13.0827809 33.5237882,13.009236 C33.1972897,12.854617 32.7855431,13.4208251 32.6315973,13.6398464 C32.3367172,14.0593345 32.1259731,14.533309 31.8035533,14.9343437 C31.478538,15.3386725 31.0435326,15.6043819 30.555403,15.7713032 C29.4549623,16.1475653 28.1370695,16.1993962 27.0180219,15.8818894 C26.4174414,15.711506 25.9004237,15.3840498 25.3461247,15.1093657 C24.7696793,14.8237239 24.143885,14.6570042 23.5029894,14.6025851 C21.0298463,14.3925385 18.69966,15.6674396 17.0297179,17.3986685 C16.6087688,17.8350302 16.222337,18.3047696 15.876726,18.8026092 C15.553868,19.26771 15.1938973,19.7775494 14.9893217,20.3077582 C14.888871,20.5681232 14.836185,20.8538995 14.9310738,21.1242811 C15.0333447,21.4155363 15.2742241,21.6285744 15.5077551,21.8175793 C15.6857348,21.9615767 16.3602039,22.3569645 16.0529529,22.65027 C15.9635248,22.735613 15.811433,22.7446212 15.6973979,22.7692931 C15.5481376,22.8016286 15.398574,22.8329221 15.2479654,22.8585015 C14.9287479,22.912719 14.6038337,22.9466344 14.2801331,22.9186349 C14.0837486,22.9017276 13.8442176,22.8818624 13.6926651,22.7395457 C13.5409104,22.5970609 13.5584387,22.3962242 13.5835177,22.2081941 C13.6021584,22.0686 13.6454735,21.9064517 13.5661579,21.7768406 C13.5027526,21.6732458 13.3823804,21.6273643 13.2953119,21.5484414 C13.1284558,21.3971837 13.1016578,21.201725 13.1712654,20.9931238 C13.2543226,20.7443216 13.4473362,20.5436194 13.6017539,20.3378417 C13.7861382,20.0921655 13.93823,19.8330778 13.9944217,19.5277724 C14.1116928,18.8904731 13.8624537,18.2611737 13.5164382,17.7375194 C13.3931333,17.550901 13.2717161,17.3553751 13.2644014,17.1253289 C13.2552327,16.837872 13.4056391,16.5664148 13.5468431,16.3268225 C13.84833,15.8152352 14.2294021,15.3521512 14.6419578,14.926075 C15.063008,14.4912594 15.5544411,14.1440052 15.7047126,13.5249913 C16.0061995,12.2828963 14.9952881,11.188597 14.6247666,10.0768526 C14.2602115,8.98292301 14.2800657,7.80361681 14.5147765,6.68491456 C14.7540042,5.54486815 15.1889084,4.35127651 15.8089049,3.35932824 C16.0516046,2.97106642 16.3807997,2.60787978 16.842165,2.49362977 C17.426734,2.34889291 18.0470676,2.59386323 18.6219624,2.68263472 C19.3016562,2.7876412 19.9907884,2.80538878 20.6758419,2.74905367 C20.7452472,2.74333949 20.7710678,2.84817791 20.7112019,2.87920255 C20.0195079,3.23775063 19.2407116,3.36016856 18.4670728,3.30087553 C17.625141,3.2363725 16.8538617,2.91994131 16.0434135,2.71399549 C15.2986289,2.52475525 14.4224158,2.4633446 13.763621,2.93533598 C13.0605674,3.43902426 13.0313423,4.36314184 13.1104893,5.1436654 C13.1881195,5.90889512 13.3676498,6.72454409 13.0641404,7.46479947 C12.8146991,8.07315811 12.2567596,8.50659557 11.6292799,8.68010501 C10.8819672,8.8867567 10.0507209,8.73959972 9.3658023,8.39805974 C9.03900048,8.23510473 8.75558123,8.01406675 8.53226384,7.7249964 C8.28444053,7.40422915 8.07538175,7.10016748 7.72050094,6.88659155 C6.21036979,5.97766697 4.24359252,6.81728189 2.76403479,5.80661127 L2.85986744,5.71104999 C3.27741196,6.45917078 3.72263098,7.22954327 4.49734848,7.65908164 C5.24253753,8.07221695 6.11211014,8.16381192 6.9293675,8.35537144 C8.61798401,8.75116253 10.1940823,9.90868761 11.9947451,9.66445678 C12.3842106,9.61161741 12.7663277,9.49067844 13.0981858,9.27740502 C13.1795913,9.22510346 13.2577271,9.16752468 13.3312449,9.10466868 C13.3568969,9.08275312 13.4126504,9.04235049 13.4333473,9.01109056 C13.4648645,8.96346118 13.5206854,8.82719476 13.4570442,8.76722947 C13.3769533,8.69173505 12.9507121,8.9446716 12.8632728,8.98016675 C12.0680943,9.30295077 11.1880384,9.42348639 10.3348818,9.32906794 C9.47410702,9.23377557 8.68047917,8.89754641 7.89639076,8.54975445 C7.01491912,8.1588036 6.14086331,7.84401944 5.1948066,7.64694741 C3.37958177,7.26880305 1.31855613,7.05290784 0.0182253524,5.57236345 C-0.0409326868,5.50500334 0.0577651701,5.40581187 0.117294,5.47357534 C1.41125392,6.94689297 3.47234697,7.14171294 5.27563906,7.52130264 C6.24721295,7.72583672 7.14041507,8.06330955 8.04511171,8.46373921 C8.97771882,8.87650478 9.91737096,9.23027983 10.9529569,9.22033044 C11.4423,9.21562464 11.9304297,9.13992854 12.3983681,8.99720846 C12.6297418,8.9265879 12.8545423,8.83845506 13.0737473,8.73644011 C13.2071984,8.67435721 13.3554137,8.6022913 13.507674,8.63375291 C13.817588,8.69771813 13.6584175,8.99062034 13.5072021,9.13374378 C13.2488281,9.3782099 12.9347343,9.55511424 12.5982245,9.66855754 C10.8165057,10.2691516 9.12650719,9.17102041 7.4831272,8.6515341 C6.54452002,8.35483364 5.52892311,8.30333878 4.62988946,7.88327923 C3.72006915,7.45817775 3.20996168,6.62552069 2.73892212,5.78156971 C2.70676441,5.72392371 2.77431581,5.64473188 2.83472106,5.68597482 C4.13225405,6.57231157 5.81358957,6.0338004 7.23891068,6.51496808 C7.53426266,6.61466374 7.81660325,6.75593847 8.0584602,6.95381721 C8.34636265,7.18937593 8.5137917,7.51115157 8.76046893,7.78237351 C9.32161074,8.39930341 10.2992184,8.68746622 11.114251,8.62696312 C11.9472501,8.56511551 12.7494736,8.06562884 12.9956789,7.23996324 C13.2252997,6.46999411 12.9973306,5.66204248 12.9486221,4.8838046 C12.9073969,4.22425362 12.9819933,3.49656943 13.4703927,3.00235997 C13.9219152,2.54552798 14.605418,2.40153061 15.2280101,2.43645434 C16.1338528,2.48720971 16.9664474,2.90044586 17.8475483,3.0755351 C18.7854813,3.26191825 19.7821004,3.20353277 20.6404819,2.75859972 C20.6522798,2.80199388 20.6640777,2.84538805 20.6758419,2.8887486 C20.0077774,2.94367197 19.3377241,2.92639497 18.6740754,2.83069924 C18.0262696,2.73725557 17.248788,2.40102641 16.6227577,2.72438185 C16.1020322,2.99331812 15.8243096,3.58113931 15.5808684,4.0832814 C15.3055054,4.65127103 15.0662103,5.23737797 14.8796349,5.84045939 C14.5085067,7.03993328 14.3377743,8.33812806 14.6280363,9.57407187 C14.7721392,10.1876741 15.0486483,10.7370758 15.3333147,11.294948 C15.5861943,11.790502 15.8358041,12.3084085 15.8873778,12.8696419 C15.9332885,13.369532 15.8067139,13.8765143 15.4934628,14.2739524 C15.3260337,14.4863519 15.1100985,14.656937 14.9180624,14.8463117 C14.6980821,15.0632153 14.4867986,15.2890599 14.2886276,15.5259968 C14.0773103,15.7786644 13.8815663,16.0449453 13.7102945,16.3263183 C13.5007976,16.6705473 13.2923455,17.0494648 13.5000897,17.445592 C13.617799,17.6700921 13.7786212,17.8673994 13.8892181,18.0969414 C14.0153208,18.3586173 14.105659,18.6375702 14.1429741,18.9259011 C14.2126828,19.4646139 14.0682091,19.9432606 13.7464298,20.3765973 C13.5843267,20.5948454 13.3455709,20.8240849 13.2856376,21.0991051 C13.2049399,21.4692832 13.6146641,21.4965432 13.7211149,21.7770423 C13.8005316,21.9861813 13.6958337,22.2029168 13.7037214,22.4150474 C13.719598,22.8419304 14.3832804,22.7997127 14.6865876,22.7848894 C15.0449741,22.7673435 15.4002257,22.6941012 15.7494435,22.6149429 C15.8506695,22.592019 16.0113569,22.5927585 15.9606596,22.4051316 C15.9467044,22.3534351 15.885625,22.3051335 15.8462874,22.2666468 C15.730668,22.153506 15.5903067,22.0608354 15.4637995,21.9602658 C15.1093569,21.6785231 14.7603076,21.3448485 14.7407231,20.8632774 C14.7196891,20.3474549 15.0352998,19.8758669 15.2929996,19.454799 C15.8918273,18.4763294 16.5921506,17.5785307 17.4415657,16.8021752 C19.1329126,15.256321 21.4257838,14.1877691 23.7635881,14.4909232 C24.3397301,14.5656446 24.8964562,14.7308852 25.4168447,14.9887965 C26.0264253,15.2908414 26.5879042,15.6414569 27.2587664,15.7998069 C27.8990216,15.9509302 28.5651984,15.9678038 29.2178582,15.9007798 C29.8197534,15.8389995 30.449087,15.7238083 30.9869701,15.434906 C31.5392804,15.1382728 31.8587675,14.6478952 32.1666589,14.1227955 C32.4083473,13.7106014 32.6711708,13.227148 33.0882097,12.9636906 C33.3711234,12.7849712 33.7704317,12.8201302 33.7444763,13.215518 C33.7029477,13.8485148 34.2028753,14.3092459 34.6127343,14.7358936 C34.8296471,14.9617382 35.0547173,15.1798182 35.2872708,15.3896295 C35.5083297,15.5890544 35.753153,15.7669672 35.9601893,15.9810473 C36.2584739,16.2894114 36.4563078,16.7406301 36.0542017,17.0552462 C35.8527273,17.212924 35.6055107,17.3200144 35.3833057,17.4451886 C35.0940886,17.6080428 34.8057817,17.7778212 34.5471717,17.9869938 C34.0614016,18.3798942 33.7941286,18.9242204 33.4276185,19.4151694 C33.1972223,19.7238025 32.7893184,20.1479628 32.388628,19.8317669 C32.0919277,19.5975863 32.043017,19.1553086 32.1142089,18.8098696 C32.2101763,18.3440293 32.494472,17.9699521 32.9478484,17.8088122 C33.4014608,17.6475715 34.2355723,17.5637075 33.976895,16.8580061 C33.8517024,16.5164661 33.5029228,16.30447 33.2243575,16.1001712 C32.9425899,15.8935531 32.6608224,15.686935 32.3790549,15.4803169 C32.4133362,15.4664012 32.4476512,15.4524855 32.4819325,15.4385698 C32.2073786,16.1721699 31.467684,16.6219431 31.2434902,17.3767529 C31.0992861,17.8621894 31.286839,18.2083007 31.6347085,18.5338074 C31.9084198,18.7899036 32.1423553,19.0508736 32.2982224,19.3963126 C32.468247,19.7731461 32.4477186,20.1467191 32.5477311,20.5373674 C32.6458222,20.9205873 32.9410394,21.1720785 33.2523691,21.3926123 C33.5232489,21.584508 33.8052861,21.7600342 34.0421879,21.9949879 C34.3009664,22.2516218 34.5050701,22.5531289 34.6561843,22.8838456 C34.6791733,22.934164 34.6514314,22.9839446 34.5956779,22.9889529 C34.1445937,23.0295236 33.7035545,22.9543317 33.2708412,22.8291239 C33.056524,22.7671754 32.8455101,22.6941348 32.6351704,22.6199512 C32.4762695,22.563885 32.3074922,22.5092978 32.1797378,22.3946444 C32.071096,22.2971672 32.0047244,22.1673545 31.9201166,22.0508524 C31.7755754,21.8517972 31.5820225,21.7922353 31.3594804,21.7178501 C31.1015109,21.6315995 30.8801823,21.5132152 30.807642,21.2323799 C30.7650348,21.0673746 30.7837766,20.8936634 30.7647988,20.7258346 C30.7406637,20.5125948 30.6581121,20.3127665 30.5478186,20.1300471 C30.3533892,19.807969 30.0865881,19.5372512 29.8560235,19.2417945 C29.3978942,18.6547464 29.2599262,17.8992307 28.8128869,17.3118129 C28.2798241,16.6113551 27.3870265,16.7043954 26.6398823,16.414115 C25.8786481,16.1183893 25.2955622,15.1491297 24.4039444,15.2512791 C24.0346364,15.2935977 23.7136662,15.5779286 23.3304704,15.5319462 C22.9889718,15.4909722 22.7625869,15.0990466 22.4167736,15.1155169 C22.1647368,15.1275167 21.9833188,15.3726214 21.9377789,15.6002811 C21.8832389,15.8726459 21.9909032,16.1604726 22.0986348,16.4060479 C22.2684909,16.7933014 22.4849655,17.1608577 22.7275303,17.506969 C23.2761326,18.2896774 23.9674895,18.9621693 24.6818692,19.5930485 C25.248674,20.0936108 26.1096173,20.6600879 26.0456053,21.5192991 C26.0430435,21.5540547 26.0155038,21.5930792 25.9755932,21.5891465 C25.4531485,21.5375845 24.9307038,21.4860224 24.4082591,21.4344603 C24.0986822,21.4039398 23.7853637,21.3715707 23.7091493,21.0191401 C23.6772612,20.8717815 23.6933401,20.7191456 23.6765533,20.5702744 C23.647126,20.3092708 23.4887982,20.2025836 23.2678404,20.1014426 C23.1369174,20.0415446 23.0028933,19.9848397 22.9057797,19.8747577 C22.788812,19.7421215 22.767778,19.5705952 22.7283056,19.4049511 C22.534247,18.5904114 21.6230447,18.358819 20.9231595,18.1505875 C20.3335342,17.9750949 19.6419751,17.7179231 19.3796572,17.110304 C19.0633049,16.3775443 19.5372771,15.6543642 20.031508,15.1394156 C20.614695,14.5317964 21.3261084,14.0577211 21.8627106,13.4039515 C22.4623809,12.6732758 22.9414431,11.8382658 23.2688854,10.9524333 C23.4509438,10.4599717 23.5971703,9.94579618 23.6342157,9.42019233 C23.6701825,8.9103529 23.5766757,8.41584093 23.4217524,7.93148003 C22.9130607,6.3413242 21.9467116,4.63184281 22.6941591,2.95150376 C23.441101,1.27227392 25.404204,1.49610177 26.9129194,1.17748574 C28.7285151,0.794064168 30.4188844,-0.114927633 32.3186159,0.0120616444 C33.9997155,0.12442934 35.570117,0.884549911 36.7637611,2.05911669 C37.3561842,2.64203042 37.8213922,3.31005183 38.2325996,4.02835804 C38.6935267,4.83358703 39.1293411,5.66100049 39.4164682,6.54582466 C39.6431564,7.24443375 39.9574525,7.8544058 40.5213584,8.34229605 C40.8637334,8.63852594 41.2739632,8.8857147 41.7092383,9.01895596 C41.7606097,9.03465315 41.8145093,9.04345972 41.8655099,9.05952665 C41.9094992,9.07337514 41.9544324,9.04725797 41.9087577,9.08278673 L41.9087577,9.18154123 C41.5590342,8.87388298 41.2201985,8.55439302 40.8790033,8.23742402 C40.5485947,7.93040442 40.2409392,7.59266268 39.808327,7.43562354 C39.1113745,7.18258614 38.2967801,7.20651848 37.6028277,7.45427866 C36.3477671,7.90237131 35.3138666,9.1138786 34.8559733,10.3370831 C34.5230366,11.2265123 34.4570358,12.1976878 34.6667687,13.1232844 C34.6380492,13.1070157 34.6093298,13.0907808 34.5806103,13.0744785 C35.0548185,12.9590857 35.2511355,12.46854 35.4004632,12.0540266 C35.5582854,11.6159169 35.7229504,11.1871517 35.9416497,10.7746886 C36.1656076,10.3523434 36.4292738,9.95167842 36.7265808,9.57709703 C36.873313,9.39219284 37.0285734,9.21397761 37.1917889,9.04335888 C37.3135432,8.91603347 37.4661743,8.70662553 37.6516036,8.67418915 C37.9331015,8.62497996 38.0956091,8.96504098 38.0316308,9.19992745 C37.933506,9.56022339 37.4781407,9.74381667 37.2396209,10.001291 C36.6883556,10.5964061 36.4800384,11.4710456 36.6215795,12.2600732 C36.6933782,12.6604021 36.855751,13.0478572 37.1131812,13.3652631 C37.4120388,13.7337606 37.8382801,13.9670337 38.1546997,14.3176827 C38.6400653,14.8555216 38.8296744,16.1253136 39.7482926,16.0720036 C40.3163446,16.0390294 40.7628108,15.5410217 41.0589044,15.1031137 C41.3395933,14.6879617 41.5225618,14.2296507 41.6478555,13.7467352 C41.866892,12.9024481 41.9758371,11.9944646 42.6190923,11.346342 C42.8525559,11.1111194 43.0396369,10.8871907 42.8052969,10.5749948 C42.684992,10.4147288 42.5378217,10.2756053 42.4933604,10.0723821 C42.4024492,9.65659137 42.6984079,9.26906904 43.0438504,9.076165 C43.5527107,8.79196851 44.2022019,8.71250778 44.7615235,8.57271201 C45.410981,8.41042926 46.0603711,8.2481129 46.7097949,8.08583015 C46.7409077,8.07806558 46.771953,8.09124181 46.7888745,8.1179304 C47.1834637,8.7392972 46.1344619,9.21545657 45.7030296,9.3975709 C45.0709318,9.66438955 44.4023617,9.86031875 43.7912979,10.1744979 C43.6554198,10.2444126 43.3463823,10.3738892 43.3917873,10.5658521 C43.4335519,10.7425547 43.6724088,10.8500486 43.8227478,10.9073584 C44.3866874,11.1223461 45.0550889,11.1026826 45.6421861,11.0136758 C46.4644323,10.8890058 47.2815548,10.5715999 47.8801465,9.98119049 C47.9442934,9.91789753 48.0433958,10.0166184 47.9792152,10.079945" id="Fill-13" fill="#231F20"></path>
        </g>
    </g>
</svg>